<?xml version="1.0" encoding="iso-8859-1"?>
<!-- Generator: Adobe Illustrator 16.0.0, SVG Export Plug-In . SVG Version: 6.00 Build 0)  -->
<!DOCTYPE svg PUBLIC "-//W3C//DTD SVG 1.1//EN" "http://www.w3.org/Graphics/SVG/1.1/DTD/svg11.dtd">
<svg version="1.1" id="Capa_1" xmlns="http://www.w3.org/2000/svg" xmlns:xlink="http://www.w3.org/1999/xlink" x="0px" y="0px"
	 width="459.669px" height="459.669px" viewBox="0 0 459.669 459.669" style="enable-background:new 0 0 459.669 459.669;"
	 xml:space="preserve">
<g>
	<g>
		<path d="M404.723,76.087H54.948C24.649,76.087,0,100.735,0,131.035v197.599c0,30.298,24.649,54.948,54.948,54.948h349.774
			c30.298,0,54.947-24.65,54.947-54.948V131.035C459.67,100.735,435.021,76.087,404.723,76.087z M429.267,328.633
			c0,13.534-11.011,24.544-24.544,24.544H54.948c-13.534,0-24.545-11.01-24.545-24.544V196.214h398.863L429.267,328.633
			L429.267,328.633z M429.267,152.839l-398.863,0.029v-21.834c0-13.534,11.011-24.545,24.545-24.545h349.774
			c13.533,0,24.544,11.011,24.544,24.545V152.839z"/>
		<path d="M68.136,324.98h83.23c2.98,0,5.398-2.416,5.398-5.396v-16.421c0-2.981-2.418-5.397-5.398-5.397h-83.23
			c-2.981,0-5.398,2.416-5.398,5.397v16.421C62.737,322.564,65.154,324.98,68.136,324.98z"/>
		<path d="M337.963,324.98h24.756c14.288,0,25.87-11.582,25.87-25.869v-24.756c0-14.287-11.582-25.869-25.87-25.869h-24.756
			c-14.287,0-25.869,11.582-25.869,25.869v24.756C312.094,313.398,323.676,324.98,337.963,324.98z"/>
	</g>
</g>
<g>
</g>
<g>
</g>
<g>
</g>
<g>
</g>
<g>
</g>
<g>
</g>
<g>
</g>
<g>
</g>
<g>
</g>
<g>
</g>
<g>
</g>
<g>
</g>
<g>
</g>
<g>
</g>
<g>
</g>
</svg>
